<?xml version="1.0" standalone="no"?>
<!DOCTYPE svg PUBLIC "-//W3C//DTD SVG 20010904//EN"
 "http://www.w3.org/TR/2001/REC-SVG-20010904/DTD/svg10.dtd">
<svg version="1.0" xmlns="http://www.w3.org/2000/svg"
 width="256.000000pt" height="256.000000pt" viewBox="0 0 256.000000 256.000000"
 preserveAspectRatio="xMidYMid meet">
<metadata>
Created by potrace 1.11, written by Peter Selinger 2001-2013
</metadata>
<g transform="translate(0.000000,256.000000) scale(0.100000,-0.100000)"
fill="#000000" stroke="none">
<path d="M1263 2548 c-4 -7 -8 -53 -8 -103 l0 -90 -52 -3 c-29 -2 -53 -7 -53
-12 0 -7 82 -20 130 -20 48 0 130 13 130 20 0 5 -24 10 -52 12 l-53 3 0 90 c0
87 -6 115 -25 115 -5 0 -12 -6 -17 -12z"/>
<path d="M1231 2133 l4 -188 -152 -24 -152 -25 -11 -55 c-26 -129 -6 -134
-182 48 -138 142 -157 159 -163 140 -6 -18 19 -47 156 -185 89 -90 159 -167
155 -171 -4 -4 -81 67 -171 157 -142 142 -167 162 -184 154 -18 -8 -1 -27 159
-179 110 -104 179 -177 180 -189 0 -11 -12 -82 -27 -159 l-28 -139 -288 7
-289 8 11 -22 c12 -21 16 -21 291 -21 180 0 280 -4 280 -10 0 -6 -100 -10
-280 -10 -275 0 -279 0 -291 -21 l-11 -22 290 7 289 8 6 -24 c3 -12 11 -86 18
-164 l12 -140 -129 -126 c-71 -68 -149 -142 -173 -163 -41 -38 -42 -40 -21
-49 19 -9 38 7 170 139 82 82 153 146 157 142 4 -4 -60 -74 -141 -156 -126
-126 -147 -152 -141 -170 6 -20 22 -6 148 125 l142 148 5 -49 5 -48 179 -62
179 -62 -2 -172 c-3 -172 -2 -172 18 -161 20 10 21 19 21 166 0 101 3 153 10
149 6 -4 10 -67 10 -155 0 -138 1 -150 20 -160 19 -10 20 -6 22 147 l3 157
225 79 225 79 96 -102 c89 -94 97 -101 104 -80 6 19 -9 38 -101 131 -59 60
-105 112 -101 116 4 4 56 -42 116 -101 92 -92 112 -107 131 -101 20 6 9 20
-111 134 l-132 126 17 180 c9 99 19 190 22 203 l5 23 245 -7 246 -7 -11 21
c-11 22 -16 22 -246 22 -150 0 -235 4 -235 10 0 6 85 10 235 10 230 0 235 0
246 22 l11 21 -243 -7 -244 -6 -38 187 -38 188 146 142 c131 126 144 142 125
148 -19 6 -42 -12 -151 -121 -71 -71 -129 -122 -129 -114 0 8 54 69 121 136
103 103 120 125 114 144 -6 20 -18 10 -122 -99 -63 -67 -118 -119 -123 -116
-4 2 -10 22 -13 42 l-6 38 -173 29 c-95 16 -184 32 -198 36 l-24 6 3 178 c3
178 3 178 -18 166 -20 -10 -21 -19 -21 -180 0 -102 -4 -171 -10 -175 -7 -4
-10 55 -10 169 0 168 -1 176 -21 187 l-21 11 3 -189z m81 -307 c80 5 111 3
139 -8 85 -36 97 -192 20 -262 -25 -23 -26 -18 -6 20 22 42 19 122 -5 162 -26
43 -54 52 -158 52 -63 0 -94 4 -110 16 -28 19 -30 39 -3 24 12 -6 59 -8 123
-4z m3 -76 c-4 -6 5 -25 20 -42 30 -35 28 -69 -7 -103 l-20 -20 13 21 c11 19
9 26 -15 54 -27 32 -28 57 -4 88 12 14 22 16 13 2z m28 -191 c12 -6 30 -18 40
-27 16 -14 16 -16 -3 -29 -17 -12 -23 -11 -51 9 -23 17 -44 23 -85 23 -30 0
-54 1 -54 3 0 2 15 9 33 17 39 17 91 19 120 4z m-282 -224 c181 -34 176 -32
182 -57 4 -12 4 -24 2 -26 -2 -3 -76 4 -165 14 l-160 18 0 38 c0 21 2 38 4 38
2 0 64 -11 137 -25z m679 -15 c0 -16 -3 -31 -7 -33 -5 -3 -69 -12 -143 -21
-74 -9 -147 -18 -162 -21 -25 -4 -26 -3 -17 24 10 28 15 30 162 58 84 16 155
28 160 26 4 -2 7 -17 7 -33z m-470 -315 c0 -37 -12 -44 -36 -21 -17 18 -17 23
-1 41 22 25 37 17 37 -20z m-110 -70 c0 -37 -12 -44 -36 -21 -17 18 -18 28 -2
44 23 23 38 13 38 -23z m110 -70 c0 -37 -12 -44 -36 -21 -17 18 -17 23 -1 41
22 25 37 17 37 -20z m-210 -30 c0 -37 -12 -44 -36 -21 -17 18 -17 23 -1 41 22
25 37 17 37 -20z m100 -40 c0 -37 -12 -44 -36 -21 -17 18 -17 23 -1 41 22 25
37 17 37 -20z m110 -70 c0 -37 -12 -44 -36 -21 -17 18 -17 23 -1 41 22 25 37
17 37 -20z"/>
<path d="M374 2176 c-8 -22 2 -45 23 -53 24 -8 103 -84 103 -98 0 -6 -13 -24
-30 -40 -16 -16 -30 -35 -30 -42 0 -20 9 -16 37 18 15 17 37 35 50 40 13 5 27
19 32 32 5 13 23 35 40 50 34 28 38 37 18 37 -7 0 -26 -13 -42 -30 -16 -16
-34 -30 -40 -30 -14 0 -84 71 -99 102 -14 27 -53 36 -62 14z"/>
<path d="M2132 2178 c-6 -6 -12 -17 -12 -23 0 -14 -82 -95 -96 -95 -6 0 -23
14 -39 30 -16 17 -35 30 -42 30 -20 0 -16 -9 18 -37 17 -15 35 -37 40 -50 5
-13 19 -27 32 -32 13 -5 35 -23 50 -40 28 -34 37 -38 37 -18 0 7 -13 26 -30
42 -16 16 -30 32 -30 37 0 14 72 88 99 101 33 15 37 60 6 65 -11 1 -26 -3 -33
-10z"/>
<path d="M208 1358 l-3 -53 -92 0 c-60 0 -96 -4 -104 -12 -26 -26 7 -38 104
-38 l92 0 3 -52 c2 -29 7 -53 12 -53 7 0 20 82 20 130 0 48 -13 130 -20 130
-5 0 -10 -24 -12 -52z"/>
<path d="M2326 1353 c-3 -32 -6 -65 -6 -73 0 -48 13 -130 20 -130 5 0 10 24
12 53 l3 52 92 0 c97 0 130 12 104 38 -8 8 -44 12 -104 12 l-92 0 -3 53 c-4
69 -19 66 -26 -5z"/>
<path d="M440 617 c0 -7 14 -26 30 -42 17 -16 30 -34 30 -40 0 -14 -71 -84
-102 -99 -33 -17 -32 -61 2 -61 16 0 29 8 36 23 15 31 85 102 99 102 6 0 24
-13 40 -30 16 -16 35 -30 42 -30 20 0 16 9 -18 37 -17 15 -35 37 -40 50 -5 13
-19 27 -32 32 -13 5 -35 23 -50 40 -28 34 -37 38 -37 18z"/>
<path d="M2081 599 c-13 -17 -35 -35 -48 -40 -13 -5 -27 -19 -32 -32 -5 -13
-23 -35 -40 -50 -34 -28 -38 -37 -18 -37 7 0 26 14 42 30 16 17 34 30 40 30
14 0 84 -71 99 -102 17 -33 61 -32 61 2 0 16 -8 29 -23 36 -31 15 -102 85
-102 99 0 6 14 24 30 40 28 27 40 56 23 54 -5 0 -19 -14 -32 -30z"/>
<path d="M1260 240 c-8 -5 -36 -10 -62 -10 -65 0 -61 -18 5 -22 l52 -3 0 -92
c0 -60 4 -96 13 -104 25 -26 37 7 37 104 l0 92 53 3 c28 2 52 7 52 12 0 4 -24
10 -52 12 -29 2 -60 7 -68 11 -8 4 -22 2 -30 -3z"/>
</g>
</svg>
